<svg width="60" height="60" viewBox="0 0 60 60" fill="none" xmlns="http://www.w3.org/2000/svg">
<circle r="30" transform="matrix(-1 0 0 1 30 30)" fill="#0D0D0D" fill-opacity="0.6"/>
<path d="M25.4819 30.4998L37.6895 42.7071C37.8965 42.9142 38 43.1524 38 43.4216C38 43.6908 37.8966 43.929 37.6895 44.1356L36.1362 45.6889C35.9291 45.8959 35.6909 45.9998 35.4224 45.9998C35.1531 45.9998 34.915 45.8959 34.7079 45.6889L20.2327 31.2143C20.0256 31.0073 19.9224 30.769 19.9224 30.4999C19.9224 30.2306 20.0256 29.9924 20.2327 29.7854L34.7072 15.3108C34.9146 15.1034 35.1529 15 35.4221 15C35.6909 15 35.9291 15.1034 36.1361 15.3108L37.6894 16.863C37.8963 17.07 37.9996 17.3084 37.9996 17.5778C37.9996 17.8467 37.8965 18.0849 37.6894 18.2919L25.4819 30.4998Z" fill="white"/>
</svg>
