<svg width="60" height="60" viewBox="0 0 60 60" fill="none" xmlns="http://www.w3.org/2000/svg">
<circle cx="30" cy="30" r="30" fill="#0D0D0D" fill-opacity="0.6"/>
<path d="M34.5181 30.4998L22.3105 42.7071C22.1035 42.9142 22 43.1524 22 43.4216C22 43.6908 22.1034 43.929 22.3105 44.1356L23.8638 45.6889C24.0709 45.8959 24.3091 45.9998 24.5776 45.9998C24.8469 45.9998 25.085 45.8959 25.2921 45.6889L39.7673 31.2143C39.9744 31.0073 40.0776 30.769 40.0776 30.4999C40.0776 30.2306 39.9744 29.9924 39.7673 29.7854L25.2928 15.3108C25.0854 15.1034 24.8471 15 24.5779 15C24.3091 15 24.0709 15.1034 23.8639 15.3108L22.3106 16.863C22.1037 17.07 22.0004 17.3084 22.0004 17.5778C22.0004 17.8467 22.1035 18.0849 22.3106 18.2919L34.5181 30.4998Z" fill="white"/>
</svg>
