<svg width="60" height="60" viewBox="0 0 60 60" fill="none" xmlns="http://www.w3.org/2000/svg">
<path fill-rule="evenodd" clip-rule="evenodd" d="M7.10657 1.69931e-05H52.8896C54.6961 1.69931e-05 56.5693 0.483311 57.8926 1.77988C59.3891 3.10977 60.0124 5.13294 59.9957 7.08945V20.9117C59.5424 19.4918 59.2991 17.9886 58.6992 16.6187C57.8592 15.1155 55.3428 15.9921 55.5161 17.6586C55.9894 19.6418 56.4893 21.6316 57.1626 23.5582C54.2662 22.2983 51.3797 21.015 48.4833 19.7518C47.5534 19.3452 46.6301 18.7819 45.5769 18.8385C46.2402 22.2849 47.3667 25.6213 48.1867 29.0311C48.4866 30.0143 48.56 31.2276 49.4532 31.8908C50.4965 32.7808 52.3063 31.6608 52.0464 30.3276C51.7264 28.3378 51.0831 26.4113 50.5465 24.4681C53.6862 25.8813 56.8626 27.2145 59.9957 28.6411V46.663C54.9495 41.1634 49.8365 35.7272 44.7703 30.251C45.1936 28.9944 45.4202 27.6112 44.9836 26.3246C44.3003 23.7781 41.7672 22.2749 39.3407 21.7183C35.3843 20.885 31.0547 22.0549 28.0383 24.7481C26.4684 26.168 25.1385 28.1411 25.3118 30.351C25.1518 32.3908 26.4684 34.2106 28.1182 35.2639C27.235 43.5099 26.3151 51.7526 25.4185 59.9953H7.1099C5.22339 60.0053 3.26687 59.452 1.93698 58.0554C0.543755 56.7255 -0.00953382 54.779 0.000465387 52.8958V44.5165C1.47702 45.0165 3.05689 45.5464 4.6201 45.1298C7.59986 44.6398 10.0763 41.98 10.3796 38.9803C10.8696 35.9005 9.18641 32.6541 6.4033 31.2609C4.43345 30.181 2.01697 30.2243 0.000465387 31.1676V7.10613C-0.019533 5.13961 0.603752 3.10644 2.1103 1.77321C3.4302 0.483315 5.30005 -0.00331608 7.10657 1.69931e-05ZM12.0562 27.9878C11.2762 28.2078 10.9729 28.9744 10.7163 29.6577C10.9363 30.7009 11.8495 31.7642 13.0228 31.3875C14.5427 30.9642 16.0692 30.5776 17.5824 30.1343C16.0625 33.7874 14.6326 37.4771 13.1661 41.1534C12.9594 41.5434 12.9661 42.3867 13.6027 42.1934C17.4058 41.1834 21.2221 40.2035 25.0052 39.1303C26.1084 38.797 26.2151 37.4104 25.8218 36.5038C25.3418 35.8305 24.4752 35.5939 23.6953 35.8472C21.9554 36.3671 20.1822 36.7671 18.439 37.2837C19.5656 34.4806 20.6955 31.6808 21.7921 28.8677C22.2187 27.7012 22.8387 26.5946 23.032 25.358C22.472 25.358 21.9021 25.3447 21.3521 25.4813C18.2624 26.3479 15.1559 27.1645 12.0562 27.9878ZM1.87032 34.2273C1.10038 34.5273 0.490427 35.1106 0.000465387 35.7639V39.9035C0.997053 41.3301 2.9269 42.23 4.6101 41.5034C6.57661 40.8335 7.60986 38.3437 6.74993 36.4638C6.08665 34.5873 3.74017 33.3874 1.87032 34.2273Z" fill="#005BFF"/>
<path fill-rule="evenodd" clip-rule="evenodd" d="M55.5161 17.659C55.3428 15.9925 57.8592 15.1158 58.6992 16.6191C59.2991 17.989 59.5425 19.4922 59.9958 20.9121V28.6414C56.8627 27.2149 53.6862 25.8817 50.5465 24.4684C51.0831 26.4116 51.7264 28.3381 52.0464 30.328C52.3064 31.6612 50.4965 32.7811 49.4533 31.8912C48.56 31.2279 48.4867 30.0147 48.1867 29.0314C47.3667 25.6217 46.2402 22.2853 45.5769 18.8389C46.6301 18.7822 47.5534 19.3455 48.4833 19.7522C51.3798 21.0154 54.2662 22.2986 57.1626 23.5585C56.4894 21.632 55.9894 19.6422 55.5161 17.659ZM28.0383 24.7484C31.0547 22.0553 35.3844 20.8854 39.3407 21.7187C41.7672 22.2753 44.3003 23.7785 44.9836 26.325C45.4202 27.6115 45.1936 28.9948 44.7703 30.2513C43.827 32.3378 42.0972 34.001 40.1007 35.0876C36.4509 37.0374 31.7646 37.4674 28.1183 35.2643C26.4684 34.211 25.1518 32.3912 25.3118 30.3513C25.1385 28.1448 26.4684 26.1683 28.0383 24.7484ZM28.5649 30.338C28.8415 31.1312 29.2282 31.9412 30.0181 32.3378C32.5179 33.7444 35.641 33.3377 38.1441 32.1512C39.7707 31.3379 41.3972 30.018 41.7539 28.1415C41.9272 27.1816 41.2439 26.345 40.464 25.8817C38.8541 24.8517 36.8409 24.9917 35.0177 25.1551C32.2313 25.6817 29.2282 27.3615 28.5649 30.338ZM12.0562 27.9882C11.2763 28.2082 10.973 28.9748 10.7163 29.658C10.9363 30.7013 11.8496 31.7645 13.0228 31.3879C14.5427 30.9646 16.0692 30.578 17.5824 30.1347C16.0626 33.7877 14.6327 37.4774 13.1661 41.1538C12.9595 41.5438 12.9661 42.387 13.6027 42.1937C17.4058 41.1838 21.2221 40.2039 25.0052 39.1306C26.1084 38.7973 26.2151 37.4108 25.8218 36.5042C25.3418 35.8309 24.4752 35.5942 23.6953 35.8475C21.9554 36.3675 20.1822 36.7675 18.439 37.2841C19.5656 34.481 20.6955 31.6812 21.7921 28.8681C22.2187 27.7015 22.8387 26.5949 23.032 25.3584C22.472 25.3584 21.9021 25.345 21.3521 25.4817C18.2624 26.3483 15.156 27.1649 12.0562 27.9882ZM0.000488281 31.1679C2.017 30.2247 4.43347 30.1813 6.40332 31.2612C9.18643 32.6545 10.8696 35.9009 10.3797 38.9806C10.0764 41.9804 7.59989 44.6402 4.62012 45.1301C3.05691 45.5468 1.47704 45.0168 0.000488281 44.5169V39.9039C0.997076 41.3304 2.92692 42.2304 4.61012 41.5038C6.57664 40.8338 7.60989 38.344 6.74996 36.4642C6.08667 34.5843 3.74019 33.3877 1.87034 34.2277C1.1004 34.5277 0.49045 35.1109 0.000488281 35.7642V31.1679Z" fill="white"/>
<path fill-rule="evenodd" clip-rule="evenodd" d="M28.5649 30.3375C29.2282 27.3611 32.2313 25.6812 35.0177 25.1546C36.8409 24.9913 38.8541 24.8513 40.4639 25.8812C41.2439 26.3445 41.9272 27.1811 41.7538 28.141C41.3972 30.0175 39.7707 31.3374 38.1441 32.1507C35.641 33.3373 32.5179 33.7439 30.0181 32.3374C29.2282 31.9407 28.8415 31.1308 28.5649 30.3375ZM40.1006 35.0871C36.4509 37.037 31.7646 37.467 28.1182 35.2638C27.235 43.5098 26.3151 51.7525 25.4185 59.9952H52.5763C54.4862 60.0318 56.4993 59.5985 57.8992 58.212C59.4891 56.8054 60.0557 54.6323 59.9957 52.5724V46.6629C54.9495 41.1633 49.8365 35.7271 44.7703 30.2509C43.827 32.3374 42.0971 34.0006 40.1006 35.0871Z" fill="#F91155"/>
</svg>
