<svg width="40" height="40" viewBox="0 0 40 40" fill="none" xmlns="http://www.w3.org/2000/svg">
<circle cx="20" cy="20" r="20" fill="white" fill-opacity="0.6"/>
<path d="M23.0122 20.3332L14.8737 28.4714C14.7358 28.6095 14.6667 28.7683 14.6667 28.9477C14.6667 29.1272 14.7357 29.286 14.8737 29.4238L15.9093 30.4593C16.0474 30.5972 16.2061 30.6665 16.3851 30.6665C16.5647 30.6665 16.7234 30.5972 16.8615 30.4593L26.5116 20.8096C26.6497 20.6715 26.7185 20.5127 26.7185 20.3332C26.7185 20.1537 26.6497 19.995 26.5116 19.8569L16.862 10.2072C16.7237 10.069 16.5648 9.99998 16.3854 9.99998C16.2061 9.99998 16.0474 10.069 15.9093 10.2072L14.8738 11.242C14.7359 11.38 14.667 11.5389 14.667 11.7185C14.667 11.8978 14.7358 12.0566 14.8738 12.1946L23.0122 20.3332Z" fill="#0D0D0D"/>
</svg>
