<svg width="40" height="40" viewBox="0 0 40 40" fill="none" xmlns="http://www.w3.org/2000/svg">
<circle r="20" transform="matrix(-1 0 0 1 20 20)" fill="white" fill-opacity="0.6"/>
<path d="M16.9879 20.3332L25.1264 28.4714C25.2643 28.6095 25.3334 28.7683 25.3334 28.9477C25.3334 29.1272 25.2644 29.286 25.1264 29.4238L24.0908 30.4593C23.9527 30.5972 23.794 30.6665 23.615 30.6665C23.4354 30.6665 23.2767 30.5972 23.1386 30.4593L13.4884 20.8096C13.3504 20.6715 13.2816 20.5127 13.2816 20.3332C13.2816 20.1537 13.3504 19.995 13.4884 19.8569L23.1381 10.2072C23.2764 10.069 23.4353 9.99998 23.6147 9.99998C23.794 9.99998 23.9527 10.069 24.0908 10.2072L25.1263 11.242C25.2642 11.38 25.3331 11.5389 25.3331 11.7185C25.3331 11.8978 25.2643 12.0566 25.1263 12.1946L16.9879 20.3332Z" fill="#0D0D0D"/>
</svg>
