<svg width="82" height="56" viewBox="0 0 82 56" fill="none" xmlns="http://www.w3.org/2000/svg">
<path d="M38.3969 55.9178C53.8675 55.9178 66.3558 43.4295 66.3558 27.9589C66.3558 12.4883 53.8675 0 38.3969 0C22.9263 0 10.438 12.4883 10.438 27.9589C10.2516 43.4295 22.9263 55.9178 38.3969 55.9178Z" fill="#FED42B"/>
<path d="M24.6038 15.2842L0 47.5301L6.52374 54.9858L24.7902 30.7548L22.9263 43.9887L33.1779 47.5301L45.6662 27.5861C45.107 31.314 44.1751 39.888 52.3763 42.4975C65.2374 46.4118 76.421 23.2991 81.64 11.5563L74.1843 7.64209C68.4061 19.7576 59.4593 33.1779 55.9178 32.2459C52.3763 31.314 55.545 19.944 57.5953 12.6747V12.4883L46.2254 8.57405L32.6187 30.7548L34.4826 18.6393L24.6038 15.2842Z" fill="black"/>
</svg>
